<mxfile host="app.diagrams.net" agent="Mozilla/5.0 (Windows NT 10.0; Win64; x64) AppleWebKit/537.36 (KHTML, like Gecko) Chrome/131.0.0.0 Safari/537.36" version="25.0.1">
  <diagram name="第 1 页" id="dASS6e9j6N8wEh0hIOC-">
    <mxGraphModel dx="1170" dy="2245" grid="0" gridSize="10" guides="1" tooltips="1" connect="1" arrows="1" fold="1" page="0" pageScale="1" pageWidth="827" pageHeight="1169" math="0" shadow="0">
      <root>
        <mxCell id="0" />
        <mxCell id="1" parent="0" />
        <mxCell id="iTxIIWtL8fAowcbIRyb4-4" value="" style="rounded=0;whiteSpace=wrap;html=1;fillColor=#dae8fc;strokeColor=#6c8ebf;" vertex="1" parent="1">
          <mxGeometry x="96" y="-248" width="30" height="30" as="geometry" />
        </mxCell>
        <mxCell id="iTxIIWtL8fAowcbIRyb4-6" value="" style="rounded=0;whiteSpace=wrap;html=1;fillColor=#dae8fc;strokeColor=#6c8ebf;" vertex="1" parent="1">
          <mxGeometry x="266" y="-98" width="30" height="30" as="geometry" />
        </mxCell>
        <mxCell id="iTxIIWtL8fAowcbIRyb4-7" value="" style="rounded=0;whiteSpace=wrap;html=1;fillColor=#dae8fc;strokeColor=#6c8ebf;" vertex="1" parent="1">
          <mxGeometry x="253" y="330" width="30" height="30" as="geometry" />
        </mxCell>
        <mxCell id="iTxIIWtL8fAowcbIRyb4-8" value="" style="rounded=0;whiteSpace=wrap;html=1;fillColor=#dae8fc;strokeColor=#6c8ebf;" vertex="1" parent="1">
          <mxGeometry x="-17" y="-27" width="30" height="30" as="geometry" />
        </mxCell>
        <mxCell id="iTxIIWtL8fAowcbIRyb4-9" value="" style="ellipse;whiteSpace=wrap;html=1;aspect=fixed;fillColor=#f8cecc;strokeColor=#b85450;" vertex="1" parent="1">
          <mxGeometry x="111" y="201" width="30" height="30" as="geometry" />
        </mxCell>
        <mxCell id="iTxIIWtL8fAowcbIRyb4-10" value="按照bufferdelay对应的最优负载建立树的主干（最远节点" style="rounded=0;whiteSpace=wrap;html=1;" vertex="1" parent="1">
          <mxGeometry x="-280" y="-17" width="120" height="60" as="geometry" />
        </mxCell>
        <mxCell id="iTxIIWtL8fAowcbIRyb4-11" value="节点进行排序" style="rounded=0;whiteSpace=wrap;html=1;" vertex="1" parent="1">
          <mxGeometry x="-277" y="-98" width="120" height="60" as="geometry" />
        </mxCell>
        <mxCell id="iTxIIWtL8fAowcbIRyb4-12" value="从远到近依次将每个节点加到树中" style="rounded=0;whiteSpace=wrap;html=1;" vertex="1" parent="1">
          <mxGeometry x="-280" y="79" width="120" height="60" as="geometry" />
        </mxCell>
        <mxCell id="iTxIIWtL8fAowcbIRyb4-15" value="是否还有没加入树中节点" style="rhombus;whiteSpace=wrap;html=1;" vertex="1" parent="1">
          <mxGeometry x="-326" y="476" width="159" height="80" as="geometry" />
        </mxCell>
        <mxCell id="iTxIIWtL8fAowcbIRyb4-18" value="" style="rounded=0;whiteSpace=wrap;html=1;fillColor=#dae8fc;strokeColor=#6c8ebf;" vertex="1" parent="1">
          <mxGeometry x="287" y="176" width="30" height="30" as="geometry" />
        </mxCell>
        <mxCell id="iTxIIWtL8fAowcbIRyb4-29" style="edgeStyle=none;curved=1;rounded=0;orthogonalLoop=1;jettySize=auto;html=1;exitX=0.5;exitY=1;exitDx=0;exitDy=0;entryX=0.5;entryY=0;entryDx=0;entryDy=0;fontSize=12;startSize=8;endSize=8;" edge="1" parent="1" source="iTxIIWtL8fAowcbIRyb4-20" target="iTxIIWtL8fAowcbIRyb4-26">
          <mxGeometry relative="1" as="geometry" />
        </mxCell>
        <mxCell id="iTxIIWtL8fAowcbIRyb4-20" value="" style="rounded=0;whiteSpace=wrap;html=1;fillColor=#dae8fc;strokeColor=#6c8ebf;" vertex="1" parent="1">
          <mxGeometry x="689" y="-194" width="30" height="30" as="geometry" />
        </mxCell>
        <mxCell id="iTxIIWtL8fAowcbIRyb4-21" value="" style="rounded=0;whiteSpace=wrap;html=1;fillColor=#dae8fc;strokeColor=#6c8ebf;" vertex="1" parent="1">
          <mxGeometry x="847" y="-122" width="30" height="30" as="geometry" />
        </mxCell>
        <mxCell id="iTxIIWtL8fAowcbIRyb4-22" value="" style="rounded=0;whiteSpace=wrap;html=1;fillColor=#dae8fc;strokeColor=#6c8ebf;" vertex="1" parent="1">
          <mxGeometry x="843" y="330" width="30" height="30" as="geometry" />
        </mxCell>
        <mxCell id="iTxIIWtL8fAowcbIRyb4-23" value="" style="rounded=0;whiteSpace=wrap;html=1;fillColor=#dae8fc;strokeColor=#6c8ebf;" vertex="1" parent="1">
          <mxGeometry x="576" y="66" width="30" height="30" as="geometry" />
        </mxCell>
        <mxCell id="iTxIIWtL8fAowcbIRyb4-24" value="" style="ellipse;whiteSpace=wrap;html=1;aspect=fixed;fillColor=#f8cecc;strokeColor=#b85450;" vertex="1" parent="1">
          <mxGeometry x="701" y="201" width="30" height="30" as="geometry" />
        </mxCell>
        <mxCell id="iTxIIWtL8fAowcbIRyb4-25" value="" style="rounded=0;whiteSpace=wrap;html=1;fillColor=#dae8fc;strokeColor=#6c8ebf;" vertex="1" parent="1">
          <mxGeometry x="877" y="176" width="30" height="30" as="geometry" />
        </mxCell>
        <mxCell id="iTxIIWtL8fAowcbIRyb4-30" style="edgeStyle=none;curved=1;rounded=0;orthogonalLoop=1;jettySize=auto;html=1;exitX=0.5;exitY=1;exitDx=0;exitDy=0;entryX=0.5;entryY=0;entryDx=0;entryDy=0;fontSize=12;startSize=8;endSize=8;" edge="1" parent="1" source="iTxIIWtL8fAowcbIRyb4-26" target="iTxIIWtL8fAowcbIRyb4-27">
          <mxGeometry relative="1" as="geometry" />
        </mxCell>
        <mxCell id="iTxIIWtL8fAowcbIRyb4-26" value="" style="rounded=0;whiteSpace=wrap;html=1;fillColor=#d5e8d4;strokeColor=#82b366;" vertex="1" parent="1">
          <mxGeometry x="692" y="-102" width="30" height="30" as="geometry" />
        </mxCell>
        <mxCell id="iTxIIWtL8fAowcbIRyb4-31" style="edgeStyle=none;curved=1;rounded=0;orthogonalLoop=1;jettySize=auto;html=1;exitX=0.5;exitY=1;exitDx=0;exitDy=0;entryX=0.5;entryY=0;entryDx=0;entryDy=0;fontSize=12;startSize=8;endSize=8;" edge="1" parent="1" source="iTxIIWtL8fAowcbIRyb4-27" target="iTxIIWtL8fAowcbIRyb4-28">
          <mxGeometry relative="1" as="geometry" />
        </mxCell>
        <mxCell id="iTxIIWtL8fAowcbIRyb4-27" value="" style="rounded=0;whiteSpace=wrap;html=1;fillColor=#d5e8d4;strokeColor=#82b366;" vertex="1" parent="1">
          <mxGeometry x="692" y="-2" width="30" height="30" as="geometry" />
        </mxCell>
        <mxCell id="iTxIIWtL8fAowcbIRyb4-32" style="edgeStyle=none;curved=1;rounded=0;orthogonalLoop=1;jettySize=auto;html=1;exitX=0.5;exitY=1;exitDx=0;exitDy=0;entryX=0.5;entryY=1;entryDx=0;entryDy=0;fontSize=12;startSize=8;endSize=8;" edge="1" parent="1" source="iTxIIWtL8fAowcbIRyb4-28" target="iTxIIWtL8fAowcbIRyb4-24">
          <mxGeometry relative="1" as="geometry" />
        </mxCell>
        <mxCell id="iTxIIWtL8fAowcbIRyb4-28" value="" style="rounded=0;whiteSpace=wrap;html=1;fillColor=#d5e8d4;strokeColor=#82b366;" vertex="1" parent="1">
          <mxGeometry x="692" y="89" width="30" height="30" as="geometry" />
        </mxCell>
        <mxCell id="iTxIIWtL8fAowcbIRyb4-33" style="edgeStyle=none;curved=1;rounded=0;orthogonalLoop=1;jettySize=auto;html=1;exitX=0.5;exitY=1;exitDx=0;exitDy=0;entryX=0.5;entryY=0;entryDx=0;entryDy=0;fontSize=12;startSize=8;endSize=8;" edge="1" parent="1" source="iTxIIWtL8fAowcbIRyb4-34" target="iTxIIWtL8fAowcbIRyb4-41">
          <mxGeometry relative="1" as="geometry" />
        </mxCell>
        <mxCell id="iTxIIWtL8fAowcbIRyb4-34" value="" style="rounded=0;whiteSpace=wrap;html=1;fillColor=#dae8fc;strokeColor=#6c8ebf;" vertex="1" parent="1">
          <mxGeometry x="1442" y="-132" width="30" height="30" as="geometry" />
        </mxCell>
        <mxCell id="iTxIIWtL8fAowcbIRyb4-88" style="edgeStyle=none;curved=1;rounded=0;orthogonalLoop=1;jettySize=auto;html=1;exitX=0.75;exitY=0;exitDx=0;exitDy=0;entryX=0.5;entryY=1;entryDx=0;entryDy=0;fontSize=12;startSize=8;endSize=8;" edge="1" parent="1" source="iTxIIWtL8fAowcbIRyb4-35" target="iTxIIWtL8fAowcbIRyb4-86">
          <mxGeometry relative="1" as="geometry" />
        </mxCell>
        <mxCell id="iTxIIWtL8fAowcbIRyb4-175" style="edgeStyle=none;curved=1;rounded=0;orthogonalLoop=1;jettySize=auto;html=1;exitX=0.5;exitY=1;exitDx=0;exitDy=0;fontSize=12;startSize=8;endSize=8;" edge="1" parent="1" source="iTxIIWtL8fAowcbIRyb4-35">
          <mxGeometry relative="1" as="geometry">
            <mxPoint x="1471.7297799246653" y="282.8226939610072" as="targetPoint" />
          </mxGeometry>
        </mxCell>
        <mxCell id="iTxIIWtL8fAowcbIRyb4-35" value="" style="rounded=0;whiteSpace=wrap;html=1;fillColor=#dae8fc;strokeColor=#6c8ebf;" vertex="1" parent="1">
          <mxGeometry x="1613" y="52" width="30" height="30" as="geometry" />
        </mxCell>
        <mxCell id="iTxIIWtL8fAowcbIRyb4-38" value="" style="ellipse;whiteSpace=wrap;html=1;aspect=fixed;fillColor=#f8cecc;strokeColor=#b85450;" vertex="1" parent="1">
          <mxGeometry x="1454" y="263" width="30" height="30" as="geometry" />
        </mxCell>
        <mxCell id="iTxIIWtL8fAowcbIRyb4-40" style="edgeStyle=none;curved=1;rounded=0;orthogonalLoop=1;jettySize=auto;html=1;exitX=0.5;exitY=1;exitDx=0;exitDy=0;entryX=0.5;entryY=0;entryDx=0;entryDy=0;fontSize=12;startSize=8;endSize=8;" edge="1" parent="1" source="iTxIIWtL8fAowcbIRyb4-41" target="iTxIIWtL8fAowcbIRyb4-43">
          <mxGeometry relative="1" as="geometry" />
        </mxCell>
        <mxCell id="iTxIIWtL8fAowcbIRyb4-41" value="" style="rounded=0;whiteSpace=wrap;html=1;fillColor=#d5e8d4;strokeColor=#82b366;" vertex="1" parent="1">
          <mxGeometry x="1434.42" y="-35" width="30" height="30" as="geometry" />
        </mxCell>
        <mxCell id="iTxIIWtL8fAowcbIRyb4-42" style="edgeStyle=none;curved=1;rounded=0;orthogonalLoop=1;jettySize=auto;html=1;exitX=0.5;exitY=1;exitDx=0;exitDy=0;entryX=0.5;entryY=0;entryDx=0;entryDy=0;fontSize=12;startSize=8;endSize=8;" edge="1" parent="1" source="iTxIIWtL8fAowcbIRyb4-43" target="iTxIIWtL8fAowcbIRyb4-45">
          <mxGeometry relative="1" as="geometry" />
        </mxCell>
        <mxCell id="iTxIIWtL8fAowcbIRyb4-172" style="edgeStyle=none;curved=1;rounded=0;orthogonalLoop=1;jettySize=auto;html=1;exitX=0;exitY=0.5;exitDx=0;exitDy=0;fontSize=12;startSize=8;endSize=8;" edge="1" parent="1" source="iTxIIWtL8fAowcbIRyb4-43">
          <mxGeometry relative="1" as="geometry">
            <mxPoint x="1458.5718645368306" y="75.42924390520375" as="targetPoint" />
          </mxGeometry>
        </mxCell>
        <mxCell id="iTxIIWtL8fAowcbIRyb4-43" value="" style="rounded=0;whiteSpace=wrap;html=1;fillColor=#d5e8d4;strokeColor=#82b366;" vertex="1" parent="1">
          <mxGeometry x="1441" y="60" width="34" height="27" as="geometry" />
        </mxCell>
        <mxCell id="iTxIIWtL8fAowcbIRyb4-44" style="edgeStyle=none;curved=1;rounded=0;orthogonalLoop=1;jettySize=auto;html=1;exitX=0.5;exitY=1;exitDx=0;exitDy=0;entryX=0.5;entryY=1;entryDx=0;entryDy=0;fontSize=12;startSize=8;endSize=8;" edge="1" parent="1" source="iTxIIWtL8fAowcbIRyb4-45" target="iTxIIWtL8fAowcbIRyb4-38">
          <mxGeometry relative="1" as="geometry" />
        </mxCell>
        <mxCell id="iTxIIWtL8fAowcbIRyb4-45" value="" style="rounded=0;whiteSpace=wrap;html=1;fillColor=#d5e8d4;strokeColor=#82b366;" vertex="1" parent="1">
          <mxGeometry x="1445" y="151" width="30" height="30" as="geometry" />
        </mxCell>
        <mxCell id="iTxIIWtL8fAowcbIRyb4-48" style="edgeStyle=none;curved=1;rounded=0;orthogonalLoop=1;jettySize=auto;html=1;exitX=0.5;exitY=1;exitDx=0;exitDy=0;fontSize=12;startSize=8;endSize=8;entryX=0.5;entryY=0;entryDx=0;entryDy=0;" edge="1" parent="1" source="iTxIIWtL8fAowcbIRyb4-47" target="iTxIIWtL8fAowcbIRyb4-49">
          <mxGeometry relative="1" as="geometry">
            <mxPoint x="-223.33333333333326" y="307.75810877482104" as="targetPoint" />
          </mxGeometry>
        </mxCell>
        <mxCell id="iTxIIWtL8fAowcbIRyb4-47" value="计算预计最优负载的latency，是否满足给定的极差限制" style="rhombus;whiteSpace=wrap;html=1;" vertex="1" parent="1">
          <mxGeometry x="-302" y="196" width="159" height="80" as="geometry" />
        </mxCell>
        <mxCell id="iTxIIWtL8fAowcbIRyb4-49" value="按照bufferdelay对应的最优负载加入树中" style="rounded=0;whiteSpace=wrap;html=1;" vertex="1" parent="1">
          <mxGeometry x="-287" y="394" width="120" height="90" as="geometry" />
        </mxCell>
        <mxCell id="iTxIIWtL8fAowcbIRyb4-52" style="edgeStyle=none;curved=1;rounded=0;orthogonalLoop=1;jettySize=auto;html=1;exitX=0.5;exitY=1;exitDx=0;exitDy=0;entryX=1;entryY=0.5;entryDx=0;entryDy=0;fontSize=12;startSize=8;endSize=8;" edge="1" parent="1" source="iTxIIWtL8fAowcbIRyb4-50" target="iTxIIWtL8fAowcbIRyb4-49">
          <mxGeometry relative="1" as="geometry" />
        </mxCell>
        <mxCell id="iTxIIWtL8fAowcbIRyb4-50" value="向远处节点进行最优负载布线" style="rounded=0;whiteSpace=wrap;html=1;" vertex="1" parent="1">
          <mxGeometry x="-120" y="272" width="120" height="90" as="geometry" />
        </mxCell>
        <mxCell id="iTxIIWtL8fAowcbIRyb4-51" style="edgeStyle=none;curved=1;rounded=0;orthogonalLoop=1;jettySize=auto;html=1;exitX=0.5;exitY=1;exitDx=0;exitDy=0;entryX=0.603;entryY=0.07;entryDx=0;entryDy=0;entryPerimeter=0;fontSize=12;startSize=8;endSize=8;" edge="1" parent="1" source="iTxIIWtL8fAowcbIRyb4-47" target="iTxIIWtL8fAowcbIRyb4-50">
          <mxGeometry relative="1" as="geometry" />
        </mxCell>
        <mxCell id="iTxIIWtL8fAowcbIRyb4-89" style="edgeStyle=none;curved=1;rounded=0;orthogonalLoop=1;jettySize=auto;html=1;exitX=0;exitY=1;exitDx=0;exitDy=0;fontSize=12;startSize=8;endSize=8;" edge="1" parent="1" source="iTxIIWtL8fAowcbIRyb4-86">
          <mxGeometry relative="1" as="geometry">
            <mxPoint x="1532.6329040527344" y="12.747974395751953" as="targetPoint" />
          </mxGeometry>
        </mxCell>
        <mxCell id="iTxIIWtL8fAowcbIRyb4-93" style="edgeStyle=none;curved=1;rounded=0;orthogonalLoop=1;jettySize=auto;html=1;exitX=0;exitY=0.75;exitDx=0;exitDy=0;entryX=0.75;entryY=0;entryDx=0;entryDy=0;fontSize=12;startSize=8;endSize=8;" edge="1" parent="1" source="iTxIIWtL8fAowcbIRyb4-94">
          <mxGeometry relative="1" as="geometry">
            <mxPoint x="1523.5" y="94" as="targetPoint" />
          </mxGeometry>
        </mxCell>
        <mxCell id="iTxIIWtL8fAowcbIRyb4-90" value="" style="rounded=0;whiteSpace=wrap;html=1;fillColor=#d5e8d4;strokeColor=#82b366;" vertex="1" parent="1">
          <mxGeometry x="1514" y="13.5" width="30" height="30" as="geometry" />
        </mxCell>
        <mxCell id="iTxIIWtL8fAowcbIRyb4-95" value="" style="edgeStyle=none;curved=1;rounded=0;orthogonalLoop=1;jettySize=auto;html=1;exitX=0;exitY=0.75;exitDx=0;exitDy=0;entryX=0.75;entryY=0;entryDx=0;entryDy=0;fontSize=12;startSize=8;endSize=8;" edge="1" parent="1" source="iTxIIWtL8fAowcbIRyb4-90" target="iTxIIWtL8fAowcbIRyb4-94">
          <mxGeometry relative="1" as="geometry">
            <mxPoint x="1514" y="36" as="sourcePoint" />
            <mxPoint x="1523.5" y="94" as="targetPoint" />
          </mxGeometry>
        </mxCell>
        <mxCell id="iTxIIWtL8fAowcbIRyb4-182" style="edgeStyle=none;curved=1;rounded=0;orthogonalLoop=1;jettySize=auto;html=1;exitX=0.25;exitY=1;exitDx=0;exitDy=0;fontSize=12;startSize=8;endSize=8;" edge="1" parent="1" source="iTxIIWtL8fAowcbIRyb4-94">
          <mxGeometry relative="1" as="geometry">
            <mxPoint x="1493.033098493304" y="124.14285714285734" as="targetPoint" />
          </mxGeometry>
        </mxCell>
        <mxCell id="iTxIIWtL8fAowcbIRyb4-94" value="" style="rounded=0;whiteSpace=wrap;html=1;fillColor=#d5e8d4;strokeColor=#82b366;" vertex="1" parent="1">
          <mxGeometry x="1503" y="94" width="30" height="30" as="geometry" />
        </mxCell>
        <mxCell id="iTxIIWtL8fAowcbIRyb4-96" value="" style="group" vertex="1" connectable="0" parent="1">
          <mxGeometry x="1105" y="-1247" width="931" height="762.27" as="geometry" />
        </mxCell>
        <mxCell id="iTxIIWtL8fAowcbIRyb4-97" value="" style="rounded=1;whiteSpace=wrap;html=1;fillColor=#dae8fc;strokeColor=#6c8ebf;strokeWidth=2;fontSize=22;fontFamily=Times New Roman;opacity=50;dashed=1;" vertex="1" parent="iTxIIWtL8fAowcbIRyb4-96">
          <mxGeometry x="395.5" y="419.77" width="507.5" height="340" as="geometry" />
        </mxCell>
        <mxCell id="iTxIIWtL8fAowcbIRyb4-98" value="" style="rounded=1;whiteSpace=wrap;html=1;fillColor=#dae8fc;strokeColor=#6c8ebf;strokeWidth=2;fontSize=22;fontFamily=Times New Roman;opacity=50;dashed=1;" vertex="1" parent="iTxIIWtL8fAowcbIRyb4-96">
          <mxGeometry x="395.5" width="507.5" height="409.77" as="geometry" />
        </mxCell>
        <mxCell id="iTxIIWtL8fAowcbIRyb4-99" style="edgeStyle=orthogonalEdgeStyle;rounded=0;orthogonalLoop=1;jettySize=auto;html=1;entryX=0.5;entryY=0;entryDx=0;entryDy=0;fontFamily=Times New Roman;fontSize=12;fontColor=default;" edge="1" parent="iTxIIWtL8fAowcbIRyb4-96" source="iTxIIWtL8fAowcbIRyb4-101" target="iTxIIWtL8fAowcbIRyb4-107">
          <mxGeometry relative="1" as="geometry" />
        </mxCell>
        <mxCell id="iTxIIWtL8fAowcbIRyb4-100" style="edgeStyle=orthogonalEdgeStyle;rounded=0;orthogonalLoop=1;jettySize=auto;html=1;exitX=1;exitY=0.5;exitDx=0;exitDy=0;dashed=1;fillColor=#dae8fc;strokeColor=#6c8ebf;" edge="1" parent="iTxIIWtL8fAowcbIRyb4-96" source="iTxIIWtL8fAowcbIRyb4-101">
          <mxGeometry relative="1" as="geometry">
            <mxPoint x="394.1600000000001" y="494.83000000000004" as="targetPoint" />
          </mxGeometry>
        </mxCell>
        <mxCell id="iTxIIWtL8fAowcbIRyb4-101" value="&lt;font style=&quot;font-size: 28px;&quot;&gt;Heuristic Iteration Optimal&lt;/font&gt;" style="rounded=0;whiteSpace=wrap;html=1;strokeColor=#6c8ebf;fontFamily=Times New Roman;fillColor=#dae8fc;strokeWidth=4;align=center;verticalAlign=middle;fontSize=12;fontColor=default;" vertex="1" parent="iTxIIWtL8fAowcbIRyb4-96">
          <mxGeometry x="38" y="513" width="249.84" height="131.23" as="geometry" />
        </mxCell>
        <mxCell id="iTxIIWtL8fAowcbIRyb4-102" style="edgeStyle=orthogonalEdgeStyle;rounded=0;orthogonalLoop=1;jettySize=auto;html=1;fontFamily=Times New Roman;fontSize=12;fontColor=default;" edge="1" parent="iTxIIWtL8fAowcbIRyb4-96" source="iTxIIWtL8fAowcbIRyb4-104" target="iTxIIWtL8fAowcbIRyb4-101">
          <mxGeometry relative="1" as="geometry" />
        </mxCell>
        <mxCell id="iTxIIWtL8fAowcbIRyb4-103" style="edgeStyle=orthogonalEdgeStyle;rounded=0;orthogonalLoop=1;jettySize=auto;html=1;exitX=1;exitY=0.5;exitDx=0;exitDy=0;fillColor=#dae8fc;strokeColor=#6c8ebf;dashed=1;" edge="1" parent="iTxIIWtL8fAowcbIRyb4-96" source="iTxIIWtL8fAowcbIRyb4-104">
          <mxGeometry relative="1" as="geometry">
            <mxPoint x="394.1600000000001" y="251.83" as="targetPoint" />
          </mxGeometry>
        </mxCell>
        <mxCell id="iTxIIWtL8fAowcbIRyb4-104" value="&lt;font style=&quot;font-size: 28px;&quot;&gt;CTS Initial Solution Generate&amp;nbsp;&lt;/font&gt;" style="rounded=0;whiteSpace=wrap;html=1;strokeColor=#6c8ebf;fontFamily=Times New Roman;strokeWidth=4;fillColor=#dae8fc;" vertex="1" parent="iTxIIWtL8fAowcbIRyb4-96">
          <mxGeometry x="40.16" y="183.16" width="249.84" height="136.84" as="geometry" />
        </mxCell>
        <mxCell id="iTxIIWtL8fAowcbIRyb4-105" style="edgeStyle=orthogonalEdgeStyle;rounded=0;orthogonalLoop=1;jettySize=auto;html=1;entryX=0.5;entryY=0;entryDx=0;entryDy=0;fontFamily=Times New Roman;fontSize=12;fontColor=default;" edge="1" parent="iTxIIWtL8fAowcbIRyb4-96" source="iTxIIWtL8fAowcbIRyb4-106" target="iTxIIWtL8fAowcbIRyb4-104">
          <mxGeometry relative="1" as="geometry" />
        </mxCell>
        <mxCell id="iTxIIWtL8fAowcbIRyb4-106" value="&lt;font style=&quot;font-size: 28px;&quot;&gt;START&lt;/font&gt;" style="rounded=1;whiteSpace=wrap;html=1;strokeColor=#d79b00;fontFamily=Times New Roman;fillColor=#ffe6cc;strokeWidth=3;" vertex="1" parent="iTxIIWtL8fAowcbIRyb4-96">
          <mxGeometry x="90.5" y="8.77000000000001" width="150" height="50" as="geometry" />
        </mxCell>
        <mxCell id="iTxIIWtL8fAowcbIRyb4-107" value="&lt;font style=&quot;font-size: 28px;&quot;&gt;END&lt;/font&gt;" style="rounded=1;whiteSpace=wrap;html=1;strokeColor=#d79b00;fontFamily=Times New Roman;align=center;verticalAlign=middle;fontSize=12;fillColor=#ffe6cc;strokeWidth=3;" vertex="1" parent="iTxIIWtL8fAowcbIRyb4-96">
          <mxGeometry x="90.08" y="690.8299999999999" width="150" height="50" as="geometry" />
        </mxCell>
        <mxCell id="iTxIIWtL8fAowcbIRyb4-108" style="edgeStyle=orthogonalEdgeStyle;rounded=0;orthogonalLoop=1;jettySize=auto;html=1;exitX=0.5;exitY=1;exitDx=0;exitDy=0;fontFamily=Times New Roman;" edge="1" parent="iTxIIWtL8fAowcbIRyb4-96" source="iTxIIWtL8fAowcbIRyb4-109" target="iTxIIWtL8fAowcbIRyb4-113">
          <mxGeometry relative="1" as="geometry" />
        </mxCell>
        <mxCell id="iTxIIWtL8fAowcbIRyb4-109" value="&lt;span&gt;Select Node Candidate Set&lt;/span&gt;" style="rounded=0;whiteSpace=wrap;html=1;strokeColor=#666666;fontFamily=Times New Roman;fontSize=22;fillColor=#f5f5f5;fontColor=#333333;" vertex="1" parent="iTxIIWtL8fAowcbIRyb4-96">
          <mxGeometry x="505.5" y="45.77000000000001" width="260" height="35" as="geometry" />
        </mxCell>
        <mxCell id="iTxIIWtL8fAowcbIRyb4-110" style="edgeStyle=orthogonalEdgeStyle;rounded=0;orthogonalLoop=1;jettySize=auto;html=1;exitX=0.5;exitY=1;exitDx=0;exitDy=0;fontFamily=Times New Roman;" edge="1" parent="iTxIIWtL8fAowcbIRyb4-96" source="iTxIIWtL8fAowcbIRyb4-111" target="iTxIIWtL8fAowcbIRyb4-118">
          <mxGeometry relative="1" as="geometry" />
        </mxCell>
        <mxCell id="iTxIIWtL8fAowcbIRyb4-111" value="&lt;span style=&quot;color: rgb(0, 0, 0); text-align: left;&quot;&gt;&lt;font face=&quot;Times New Roman&quot;&gt;Buffer Adjust / Node Filter&lt;/font&gt;&lt;/span&gt;" style="rounded=0;whiteSpace=wrap;html=1;strokeColor=#666666;fontFamily=Times New Roman;fontSize=22;fillColor=#f5f5f5;fontColor=#333333;align=center;verticalAlign=middle;" vertex="1" parent="iTxIIWtL8fAowcbIRyb4-96">
          <mxGeometry x="505.5" y="211.77" width="260" height="35" as="geometry" />
        </mxCell>
        <mxCell id="iTxIIWtL8fAowcbIRyb4-112" style="edgeStyle=orthogonalEdgeStyle;rounded=0;orthogonalLoop=1;jettySize=auto;html=1;exitX=0.5;exitY=1;exitDx=0;exitDy=0;fontFamily=Times New Roman;" edge="1" parent="iTxIIWtL8fAowcbIRyb4-96" source="iTxIIWtL8fAowcbIRyb4-113" target="iTxIIWtL8fAowcbIRyb4-111">
          <mxGeometry relative="1" as="geometry" />
        </mxCell>
        <mxCell id="iTxIIWtL8fAowcbIRyb4-113" value="Init Buffer Position" style="rounded=0;whiteSpace=wrap;html=1;strokeColor=#666666;fontFamily=Times New Roman;fontSize=22;fillColor=#f5f5f5;fontColor=#333333;" vertex="1" parent="iTxIIWtL8fAowcbIRyb4-96">
          <mxGeometry x="505.5" y="128.77" width="260" height="35" as="geometry" />
        </mxCell>
        <mxCell id="iTxIIWtL8fAowcbIRyb4-114" style="edgeStyle=orthogonalEdgeStyle;rounded=0;orthogonalLoop=1;jettySize=auto;html=1;exitX=0.5;exitY=1;exitDx=0;exitDy=0;entryX=0.5;entryY=0;entryDx=0;entryDy=0;fontFamily=Times New Roman;" edge="1" parent="iTxIIWtL8fAowcbIRyb4-96" source="iTxIIWtL8fAowcbIRyb4-118" target="iTxIIWtL8fAowcbIRyb4-119">
          <mxGeometry relative="1" as="geometry" />
        </mxCell>
        <mxCell id="iTxIIWtL8fAowcbIRyb4-115" value="&lt;font style=&quot;font-size: 13px;&quot;&gt;Yes&lt;/font&gt;" style="edgeLabel;html=1;align=center;verticalAlign=middle;resizable=0;points=[];fontFamily=Times New Roman;labelBackgroundColor=none;" vertex="1" connectable="0" parent="iTxIIWtL8fAowcbIRyb4-114">
          <mxGeometry x="-0.2068" y="3" relative="1" as="geometry">
            <mxPoint x="17" as="offset" />
          </mxGeometry>
        </mxCell>
        <mxCell id="iTxIIWtL8fAowcbIRyb4-116" style="edgeStyle=orthogonalEdgeStyle;rounded=0;orthogonalLoop=1;jettySize=auto;html=1;exitX=1;exitY=0.5;exitDx=0;exitDy=0;fontFamily=Times New Roman;entryX=0.5;entryY=0;entryDx=0;entryDy=0;" edge="1" parent="iTxIIWtL8fAowcbIRyb4-96" source="iTxIIWtL8fAowcbIRyb4-118" target="iTxIIWtL8fAowcbIRyb4-109">
          <mxGeometry relative="1" as="geometry">
            <mxPoint x="635.5" y="19.77000000000001" as="targetPoint" />
            <Array as="points">
              <mxPoint x="796" y="306" />
              <mxPoint x="796" y="10" />
              <mxPoint x="636" y="10" />
            </Array>
          </mxGeometry>
        </mxCell>
        <mxCell id="iTxIIWtL8fAowcbIRyb4-117" value="No" style="edgeLabel;html=1;align=center;verticalAlign=middle;resizable=0;points=[];labelBackgroundColor=none;fontFamily=Times New Roman;fontSize=13;" vertex="1" connectable="0" parent="iTxIIWtL8fAowcbIRyb4-116">
          <mxGeometry x="-0.2003" y="-1" relative="1" as="geometry">
            <mxPoint x="-15" y="191" as="offset" />
          </mxGeometry>
        </mxCell>
        <mxCell id="iTxIIWtL8fAowcbIRyb4-118" value="Connect?&amp;nbsp;" style="rhombus;whiteSpace=wrap;html=1;fontSize=22;fontFamily=Times New Roman;fillColor=#f5f5f5;fontColor=#333333;strokeColor=#666666;" vertex="1" parent="iTxIIWtL8fAowcbIRyb4-96">
          <mxGeometry x="508" y="275.77" width="255" height="60" as="geometry" />
        </mxCell>
        <mxCell id="iTxIIWtL8fAowcbIRyb4-119" value="&lt;span&gt;END&lt;/span&gt;" style="rounded=1;whiteSpace=wrap;html=1;strokeColor=#666666;fontFamily=Times New Roman;fontSize=22;fillColor=#f5f5f5;fontColor=#333333;" vertex="1" parent="iTxIIWtL8fAowcbIRyb4-96">
          <mxGeometry x="587.3800000000001" y="365.77" width="96.25" height="33" as="geometry" />
        </mxCell>
        <mxCell id="iTxIIWtL8fAowcbIRyb4-120" value="" style="group" vertex="1" connectable="0" parent="iTxIIWtL8fAowcbIRyb4-96">
          <mxGeometry x="502.5" y="428.77" width="308" height="317" as="geometry" />
        </mxCell>
        <mxCell id="iTxIIWtL8fAowcbIRyb4-121" style="edgeStyle=orthogonalEdgeStyle;rounded=0;orthogonalLoop=1;jettySize=auto;html=1;exitX=0.5;exitY=1;exitDx=0;exitDy=0;fontFamily=Times New Roman;" edge="1" parent="iTxIIWtL8fAowcbIRyb4-120" source="iTxIIWtL8fAowcbIRyb4-122" target="iTxIIWtL8fAowcbIRyb4-124">
          <mxGeometry relative="1" as="geometry" />
        </mxCell>
        <mxCell id="iTxIIWtL8fAowcbIRyb4-122" value="&lt;span&gt;Select Buffer Set&lt;/span&gt;" style="rounded=0;whiteSpace=wrap;html=1;strokeColor=#666666;fontFamily=Times New Roman;fontSize=22;container=0;fillColor=#f5f5f5;fontColor=#333333;" vertex="1" parent="iTxIIWtL8fAowcbIRyb4-120">
          <mxGeometry y="36" width="260" height="35" as="geometry" />
        </mxCell>
        <mxCell id="iTxIIWtL8fAowcbIRyb4-123" style="edgeStyle=orthogonalEdgeStyle;rounded=0;orthogonalLoop=1;jettySize=auto;html=1;exitX=0.5;exitY=1;exitDx=0;exitDy=0;fontFamily=Times New Roman;" edge="1" parent="iTxIIWtL8fAowcbIRyb4-120" source="iTxIIWtL8fAowcbIRyb4-124">
          <mxGeometry relative="1" as="geometry">
            <mxPoint x="130" y="202" as="targetPoint" />
          </mxGeometry>
        </mxCell>
        <mxCell id="iTxIIWtL8fAowcbIRyb4-124" value="&lt;span&gt;Adjust Buffer Position&lt;/span&gt;" style="rounded=0;whiteSpace=wrap;html=1;strokeColor=#666666;fontFamily=Times New Roman;fontSize=22;container=0;fillColor=#f5f5f5;fontColor=#333333;" vertex="1" parent="iTxIIWtL8fAowcbIRyb4-120">
          <mxGeometry y="119" width="260" height="35" as="geometry" />
        </mxCell>
        <mxCell id="iTxIIWtL8fAowcbIRyb4-125" style="edgeStyle=orthogonalEdgeStyle;rounded=0;orthogonalLoop=1;jettySize=auto;html=1;exitX=0.5;exitY=1;exitDx=0;exitDy=0;entryX=0.5;entryY=0;entryDx=0;entryDy=0;fontFamily=Times New Roman;" edge="1" parent="iTxIIWtL8fAowcbIRyb4-120" target="iTxIIWtL8fAowcbIRyb4-129">
          <mxGeometry relative="1" as="geometry">
            <mxPoint x="130" y="260" as="sourcePoint" />
          </mxGeometry>
        </mxCell>
        <mxCell id="iTxIIWtL8fAowcbIRyb4-126" value="Yes" style="edgeLabel;html=1;align=center;verticalAlign=middle;resizable=0;points=[];fontFamily=Times New Roman;container=0;labelBackgroundColor=none;fontSize=13;" vertex="1" connectable="0" parent="iTxIIWtL8fAowcbIRyb4-125">
          <mxGeometry x="-0.2068" y="3" relative="1" as="geometry">
            <mxPoint x="17" as="offset" />
          </mxGeometry>
        </mxCell>
        <mxCell id="iTxIIWtL8fAowcbIRyb4-127" style="edgeStyle=orthogonalEdgeStyle;rounded=0;orthogonalLoop=1;jettySize=auto;html=1;exitX=1;exitY=0.5;exitDx=0;exitDy=0;fontFamily=Times New Roman;entryX=0.5;entryY=0;entryDx=0;entryDy=0;" edge="1" parent="iTxIIWtL8fAowcbIRyb4-120" source="iTxIIWtL8fAowcbIRyb4-130" target="iTxIIWtL8fAowcbIRyb4-122">
          <mxGeometry relative="1" as="geometry">
            <mxPoint x="130" y="10" as="targetPoint" />
            <Array as="points">
              <mxPoint x="299" y="221" />
              <mxPoint x="299" y="10" />
              <mxPoint x="130" y="10" />
            </Array>
            <mxPoint x="257.5" y="302" as="sourcePoint" />
          </mxGeometry>
        </mxCell>
        <mxCell id="iTxIIWtL8fAowcbIRyb4-128" value="No" style="edgeLabel;html=1;align=center;verticalAlign=middle;resizable=0;points=[];labelBackgroundColor=none;fontFamily=Times New Roman;fontSize=13;" vertex="1" connectable="0" parent="iTxIIWtL8fAowcbIRyb4-127">
          <mxGeometry x="-0.2149" y="2" relative="1" as="geometry">
            <mxPoint x="-17" y="145" as="offset" />
          </mxGeometry>
        </mxCell>
        <mxCell id="iTxIIWtL8fAowcbIRyb4-129" value="&lt;span&gt;END&lt;/span&gt;" style="rounded=1;whiteSpace=wrap;html=1;strokeColor=#666666;fontFamily=Times New Roman;fontSize=22;container=0;fillColor=#f5f5f5;fontColor=#333333;" vertex="1" parent="iTxIIWtL8fAowcbIRyb4-120">
          <mxGeometry x="81.88" y="284" width="96.25" height="33" as="geometry" />
        </mxCell>
        <mxCell id="iTxIIWtL8fAowcbIRyb4-130" value="Converence?" style="rhombus;whiteSpace=wrap;html=1;fontSize=22;fontFamily=Times New Roman;fillColor=#f5f5f5;fontColor=#333333;strokeColor=#666666;" vertex="1" parent="iTxIIWtL8fAowcbIRyb4-120">
          <mxGeometry x="2.499999999999991" y="191.23" width="255" height="60" as="geometry" />
        </mxCell>
        <mxCell id="iTxIIWtL8fAowcbIRyb4-168" value="&lt;font style=&quot;font-size: 28px;&quot;&gt;skewTree establish&lt;br&gt;（limit）&lt;/font&gt;" style="rounded=0;whiteSpace=wrap;html=1;strokeColor=#6c8ebf;fontFamily=Times New Roman;strokeWidth=4;fillColor=#dae8fc;" vertex="1" parent="iTxIIWtL8fAowcbIRyb4-96">
          <mxGeometry x="46" y="329.0000000000001" width="249.84" height="136.84" as="geometry" />
        </mxCell>
        <mxCell id="iTxIIWtL8fAowcbIRyb4-131" value="No" style="edgeLabel;html=1;align=center;verticalAlign=middle;resizable=0;points=[];labelBackgroundColor=none;fontFamily=Times New Roman;fontSize=13;" vertex="1" connectable="0" parent="1">
          <mxGeometry x="1449.42" y="-718.1666666666666" as="geometry">
            <mxPoint x="121" y="477" as="offset" />
          </mxGeometry>
        </mxCell>
        <mxCell id="iTxIIWtL8fAowcbIRyb4-132" value="Yes" style="edgeLabel;html=1;align=center;verticalAlign=middle;resizable=0;points=[];labelBackgroundColor=none;fontFamily=Times New Roman;fontSize=13;" vertex="1" connectable="0" parent="1">
          <mxGeometry x="1923.16" y="-668.1666666666666" as="geometry">
            <mxPoint x="121" y="477" as="offset" />
          </mxGeometry>
        </mxCell>
        <mxCell id="iTxIIWtL8fAowcbIRyb4-174" style="edgeStyle=none;curved=1;rounded=0;orthogonalLoop=1;jettySize=auto;html=1;fontSize=12;startSize=8;endSize=8;" edge="1" parent="1" source="iTxIIWtL8fAowcbIRyb4-173">
          <mxGeometry relative="1" as="geometry">
            <mxPoint x="1515.5894252232147" y="155.62965720040484" as="targetPoint" />
          </mxGeometry>
        </mxCell>
        <mxCell id="iTxIIWtL8fAowcbIRyb4-173" value="" style="rounded=0;whiteSpace=wrap;html=1;fillColor=#d5e8d4;strokeColor=#82b366;" vertex="1" parent="1">
          <mxGeometry x="1494" y="166" width="30" height="30" as="geometry" />
        </mxCell>
        <mxCell id="iTxIIWtL8fAowcbIRyb4-177" value="" style="endArrow=none;html=1;rounded=0;fontSize=12;startSize=8;endSize=8;curved=1;" edge="1" parent="1" source="iTxIIWtL8fAowcbIRyb4-180">
          <mxGeometry width="50" height="50" relative="1" as="geometry">
            <mxPoint x="1550" y="368.25313895089283" as="sourcePoint" />
            <mxPoint x="1566" y="-225" as="targetPoint" />
          </mxGeometry>
        </mxCell>
        <mxCell id="iTxIIWtL8fAowcbIRyb4-178" value="" style="endArrow=none;html=1;rounded=0;fontSize=12;startSize=8;endSize=8;curved=1;fillColor=#fff2cc;strokeColor=#d6b656;" edge="1" parent="1" target="iTxIIWtL8fAowcbIRyb4-86">
          <mxGeometry width="50" height="50" relative="1" as="geometry">
            <mxPoint x="1550" y="368.25313895089283" as="sourcePoint" />
            <mxPoint x="1566" y="-225" as="targetPoint" />
          </mxGeometry>
        </mxCell>
        <mxCell id="iTxIIWtL8fAowcbIRyb4-86" value="" style="rounded=0;whiteSpace=wrap;html=1;fillColor=#f8cecc;strokeColor=#b85450;" vertex="1" parent="1">
          <mxGeometry x="1546" y="-110" width="30" height="30" as="geometry" />
        </mxCell>
        <mxCell id="iTxIIWtL8fAowcbIRyb4-179" value="" style="rhombus;whiteSpace=wrap;html=1;fillColor=#fff2cc;strokeColor=#d6b656;" vertex="1" parent="1">
          <mxGeometry x="1533" y="41" width="46" height="52" as="geometry" />
        </mxCell>
        <mxCell id="iTxIIWtL8fAowcbIRyb4-181" value="" style="endArrow=none;html=1;rounded=0;fontSize=12;startSize=8;endSize=8;curved=1;" edge="1" parent="1" source="iTxIIWtL8fAowcbIRyb4-86" target="iTxIIWtL8fAowcbIRyb4-180">
          <mxGeometry width="50" height="50" relative="1" as="geometry">
            <mxPoint x="1562" y="-110" as="sourcePoint" />
            <mxPoint x="1566" y="-225" as="targetPoint" />
          </mxGeometry>
        </mxCell>
        <mxCell id="iTxIIWtL8fAowcbIRyb4-180" value="" style="rhombus;whiteSpace=wrap;html=1;fillColor=#fff2cc;strokeColor=#d6b656;" vertex="1" parent="1">
          <mxGeometry x="1538" y="-162" width="46" height="52" as="geometry" />
        </mxCell>
        <mxCell id="iTxIIWtL8fAowcbIRyb4-183" value="" style="rounded=0;whiteSpace=wrap;html=1;" vertex="1" parent="1">
          <mxGeometry x="-104" y="-771" width="1041" height="142" as="geometry" />
        </mxCell>
      </root>
    </mxGraphModel>
  </diagram>
</mxfile>
